<?xml version="1.0" standalone="no"?>
<!DOCTYPE svg PUBLIC "-//W3C//DTD SVG 20010904//EN"
 "http://www.w3.org/TR/2001/REC-SVG-20010904/DTD/svg10.dtd">
<svg version="1.0" xmlns="http://www.w3.org/2000/svg"
 width="986.000000pt" height="986.000000pt" viewBox="0 0 986.000000 986.000000"
 preserveAspectRatio="xMidYMid meet">
<metadata>
Created by potrace 1.16, written by Peter Selinger 2001-2019
</metadata>
<g transform="translate(0.000000,986.000000) scale(0.100000,-0.100000)"
fill="#000000" stroke="none">
<path d="M6345 9234 c-753 -76 -1340 -453 -1690 -1084 -98 -178 -193 -420
-249 -635 -14 -54 -27 -99 -29 -101 -1 -2 -42 25 -91 60 -671 479 -1392 659
-2004 500 -339 -88 -674 -299 -934 -589 -603 -672 -769 -1444 -472 -2194 133
-336 326 -615 643 -932 304 -303 543 -488 1211 -939 526 -355 639 -440 824
-619 145 -142 249 -282 341 -462 151 -296 218 -531 231 -809 9 -186 -9 -278
-105 -559 -45 -129 -81 -238 -81 -243 0 -13 672 445 1050 716 1235 886 2233
1787 2914 2630 771 954 1189 1915 1223 2811 24 641 -182 1211 -616 1703 -158
179 -360 326 -626 457 -189 93 -361 155 -573 209 -243 61 -383 78 -672 81
-140 2 -273 1 -295 -1z"/>
</g>
</svg>
